<svg xmlns="http://www.w3.org/2000/svg" viewBox="0 0 256 256" role="img" aria-labelledby="title desc">
  <title id="title">Vote for apps and games</title>
  <desc id="desc">A ballot entering a box with game controls and app tiles</desc>
  <defs>
    <linearGradient id="bg" x1="32" y1="24" x2="224" y2="232" gradientUnits="userSpaceOnUse">
      <stop stop-color="#252552"/><stop offset="1" stop-color="#111126"/>
    </linearGradient>
    <linearGradient id="card" x1="76" y1="32" x2="181" y2="151" gradientUnits="userSpaceOnUse">
      <stop stop-color="#B7B9FF"/><stop offset="1" stop-color="#777BFF"/>
    </linearGradient>
  </defs>
  <rect width="256" height="256" rx="48" fill="url(#bg)"/>
  <path d="M50 116h156l16 24v70a18 18 0 0 1-18 18H52a18 18 0 0 1-18-18v-70l16-24Z" fill="#171733" stroke="#8B8FFF" stroke-width="8"/>
  <path d="M40 142h176" stroke="#8B8FFF" stroke-width="8" stroke-linecap="round"/>
  <rect x="70" y="28" width="116" height="126" rx="18" fill="url(#card)" transform="rotate(-5 128 91)"/>
  <path d="m95 88 18 18 45-49" fill="none" stroke="#121229" stroke-width="12" stroke-linecap="round" stroke-linejoin="round"/>
  <path d="M86 177h28m-14-14v28" stroke="#B7B9FF" stroke-width="8" stroke-linecap="round"/>
  <circle cx="166" cy="174" r="6" fill="#B7B9FF"/><circle cx="184" cy="190" r="6" fill="#B7B9FF"/>
  <rect x="151" y="199" width="13" height="13" rx="3" fill="#777BFF"/><rect x="172" y="199" width="13" height="13" rx="3" fill="#777BFF"/>
</svg>
